<svg width="30" height="46" viewBox="0 0 30 46" fill="none" xmlns="http://www.w3.org/2000/svg">
<rect width="30" height="35" rx="8" fill="#15D689"/>
<path d="M24 15C24 22 15 28 15 28C15 28 6 22 6 15C6 12.6131 6.94821 10.3239 8.63604 8.63604C10.3239 6.94821 12.6131 6 15 6C17.3869 6 19.6761 6.94821 21.364 8.63604C23.0518 10.3239 24 12.6131 24 15Z" stroke="#063A40" stroke-width="2" stroke-linecap="round" stroke-linejoin="round"/>
<path d="M15 18C16.6569 18 18 16.6569 18 15C18 13.3431 16.6569 12 15 12C13.3431 12 12 13.3431 12 15C12 16.6569 13.3431 18 15 18Z" stroke="#063A40" stroke-width="2" stroke-linecap="round" stroke-linejoin="round"/>
<path d="M15.891 44.2509C15.5201 44.979 14.4799 44.979 14.109 44.2509L9.24548 34.7039C8.90655 34.0386 9.38985 33.25 10.1365 33.25H19.8635C20.6102 33.25 21.0935 34.0386 20.7545 34.7039L15.891 44.2509Z" fill="#15D689"/>
</svg>
