<?xml version="1.0" standalone="no"?>
<!DOCTYPE svg PUBLIC "-//W3C//DTD SVG 20010904//EN"
 "http://www.w3.org/TR/2001/REC-SVG-20010904/DTD/svg10.dtd">
<svg version="1.0" xmlns="http://www.w3.org/2000/svg"
 width="245.000000pt" height="73.000000pt" viewBox="0 0 245.000000 73.000000"
 preserveAspectRatio="xMidYMid meet">

<g transform="translate(0.000000,73.000000) scale(0.100000,-0.100000)"
fill="#000000" stroke="none">
<path d="M873 636 c3 -7 -6 -95 -20 -195 -20 -145 -23 -184 -13 -196 10 -12
37 -15 124 -15 61 0 121 3 133 6 24 7 33 38 53 184 15 107 11 110 -112 110
-85 0 -88 1 -87 23 0 12 4 31 9 42 11 29 -16 55 -58 55 -25 0 -33 -4 -29 -14z
m192 -198 c2 -7 1 -38 -3 -68 l-7 -55 -69 -3 -69 -3 7 63 c4 34 10 66 12 70 9
14 124 9 129 -4z"/>
<path d="M1241 636 c-6 -7 -23 -96 -36 -196 -14 -101 -30 -189 -36 -197 -9
-10 -5 -13 24 -13 30 0 67 20 67 37 0 14 51 360 55 371 6 17 -59 16 -74 -2z"/>
<path d="M194 520 c-24 -10 -24 -10 -54 -230 -12 -85 -27 -161 -33 -169 -10
-12 -5 -13 36 -9 61 7 70 17 70 73 l0 45 92 0 c59 0 97 5 109 13 13 10 23 46
38 137 19 119 19 124 2 137 -20 15 -225 17 -260 3z m181 -117 c-14 -97 -10
-93 -83 -93 l-65 0 7 62 c3 34 12 65 19 70 6 4 38 8 71 8 l58 0 -7 -47z"/>
<path d="M512 493 c-1 -21 -8 -83 -17 -137 -11 -73 -12 -103 -4 -113 16 -18
248 -19 271 -1 11 9 22 48 32 116 22 144 22 159 -10 165 -36 7 -52 -15 -59
-80 -3 -32 -9 -74 -13 -93 -8 -35 -8 -35 -66 -38 -33 -2 -62 1 -66 5 -5 4 -4
31 1 58 5 28 11 69 13 93 4 38 2 44 -20 53 -48 18 -61 12 -62 -28z"/>
<path d="M1354 516 c-3 -8 -4 -25 -2 -38 3 -22 8 -23 102 -28 67 -3 101 -9
104 -17 3 -10 -22 -13 -101 -13 -72 0 -108 -4 -115 -13 -6 -7 -15 -43 -20 -81
-12 -94 -10 -96 137 -96 78 0 123 4 134 13 11 8 21 44 32 114 19 131 19 159
-1 167 -9 3 -72 6 -140 6 -99 0 -126 -3 -130 -14z m186 -191 c0 -12 -14 -15
-70 -15 -56 0 -70 3 -70 15 0 12 14 15 70 15 56 0 70 -3 70 -15z"/>
<path d="M1718 523 c-21 -5 -31 -42 -48 -171 -9 -73 -9 -96 0 -107 10 -12 40
-15 136 -15 133 0 154 7 154 56 0 24 0 24 -106 24 l-107 0 7 62 c4 34 10 66
12 70 3 4 50 8 104 8 88 0 100 2 110 19 5 11 10 29 10 40 0 20 -5 21 -127 20
-71 -1 -136 -3 -145 -6z"/>
<path d="M2050 510 c-11 -11 -20 -25 -20 -31 0 -6 -7 -59 -16 -116 -11 -81
-12 -108 -3 -119 9 -11 43 -14 150 -14 l139 0 0 28 c0 45 -15 52 -117 52 -76
0 -93 3 -93 15 0 12 18 15 105 15 122 0 120 -2 130 106 7 69 7 71 -16 77 -13
4 -72 7 -131 7 -95 0 -110 -2 -128 -20z m195 -75 c0 -5 -33 -11 -72 -13 -63
-2 -72 -1 -67 13 5 13 20 15 73 13 36 -2 66 -7 66 -13z"/>
</g>
</svg>
